<svg xmlns="http://www.w3.org/2000/svg" width="46" height="46" viewBox="0 0 46 46"><defs><style>.a{fill:#fff;}</style></defs><path class="a" d="M152.184,144H133.625l9.28,7.954Zm0,0" transform="translate(-119.905 -129.214)"/><path class="a" d="M130.679,162.284a.82.82,0,0,1-.535-.2L120,153.391v15.464h21.357V153.391l-10.144,8.695a.82.82,0,0,1-.535.2Zm0,0" transform="translate(-107.679 -137.641)"/><path class="a" d="M23,0A23,23,0,1,0,46,23,23,23,0,0,0,23,0ZM35.321,32.036a.821.821,0,0,1-.821.821h-23a.821.821,0,0,1-.821-.821V13.964a.821.821,0,0,1,.821-.821h23a.821.821,0,0,1,.821.821Zm0,0"/></svg>