<svg xmlns="http://www.w3.org/2000/svg" width="41.999" height="42" viewBox="0 0 41.999 42"><defs><style>.a{fill:#fff;}</style></defs><g transform="translate(0 0)"><g transform="translate(0 0)"><path class="a" d="M35.846,6.148A21,21,0,1,0,42,20.995,21,21,0,0,0,35.846,6.148ZM31.8,29.252l0,0v-.007L30.736,30.3a5.6,5.6,0,0,1-5.285,1.512,18.607,18.607,0,0,1-5.4-2.422,24.968,24.968,0,0,1-4.263-3.437A25.16,25.16,0,0,1,12.6,22.094a19.6,19.6,0,0,1-2.394-4.844,5.6,5.6,0,0,1,1.4-5.719l1.246-1.246a.889.889,0,0,1,1.257,0l0,0,3.934,3.934a.889.889,0,0,1,0,1.257l0,0-2.31,2.31a1.883,1.883,0,0,0-.2,2.45A27.016,27.016,0,0,0,18.3,23.466a26.849,26.849,0,0,0,3.64,3.059,1.9,1.9,0,0,0,2.422-.21L26.6,24.047a.889.889,0,0,1,1.257,0l0,0L31.8,27.995A.889.889,0,0,1,31.8,29.252Z" transform="translate(0 0)"/></g></g></svg>